<svg width="37" height="36" viewBox="0 0 37 36" fill="none" xmlns="http://www.w3.org/2000/svg">
<g mask="url(#mask0_2225_4533)">
<path d="M14 24H23C23.425 24 23.7813 23.8563 24.0688 23.5688C24.3563 23.2813 24.5 22.925 24.5 22.5V16.5C24.5 16.075 24.3563 15.7187 24.0688 15.4312C23.7813 15.1437 23.425 15 23 15H21.5V13.5C21.5 13.075 21.3563 12.7188 21.0688 12.4313C20.7813 12.1438 20.425 12 20 12H17C16.575 12 16.2188 12.1438 15.9313 12.4313C15.6438 12.7188 15.5 13.075 15.5 13.5V15H14C13.575 15 13.2187 15.1437 12.9312 15.4312C12.6437 15.7187 12.5 16.075 12.5 16.5V22.5C12.5 22.925 12.6437 23.2813 12.9312 23.5688C13.2187 23.8563 13.575 24 14 24ZM17 15V13.5H20V15H17ZM12.5 28.5C9.575 28.5 7.09375 27.4813 5.05625 25.4438C3.01875 23.4063 2 20.925 2 18C2 15.075 3.01875 12.5938 5.05625 10.5563C7.09375 8.51875 9.575 7.5 12.5 7.5H24.5C27.425 7.5 29.9062 8.51875 31.9437 10.5563C33.9812 12.5938 35 15.075 35 18C35 20.925 33.9812 23.4063 31.9437 25.4438C29.9062 27.4813 27.425 28.5 24.5 28.5H12.5ZM12.5 25.5H24.5C26.575 25.5 28.3438 24.7688 29.8063 23.3063C31.2688 21.8438 32 20.075 32 18C32 15.925 31.2688 14.1563 29.8063 12.6938C28.3438 11.2313 26.575 10.5 24.5 10.5H12.5C10.425 10.5 8.65625 11.2313 7.19375 12.6938C5.73125 14.1563 5 15.925 5 18C5 20.075 5.73125 21.8438 7.19375 23.3063C8.65625 24.7688 10.425 25.5 12.5 25.5Z" fill="white"/>
</g>
</svg>