<svg width="18" height="18" viewBox="0 0 18 18" fill="none" xmlns="http://www.w3.org/2000/svg">
<mask id="mask0_640_2733" style="mask-type:alpha" maskUnits="userSpaceOnUse" x="0" y="0" width="18" height="18">
<rect width="18" height="18" fill="#D9D9D9"/>
</mask>
<g mask="url(#mask0_640_2733)">
<path d="M9 17.25C7.6 17.25 6.3125 16.9313 5.1375 16.2938C3.9625 15.6563 3 14.8063 2.25 13.7438V15C2.25 15.2125 2.17825 15.3905 2.03475 15.534C1.89075 15.678 1.7125 15.75 1.5 15.75C1.2875 15.75 1.1095 15.678 0.966 15.534C0.822 15.3905 0.75 15.2125 0.75 15V12C0.75 11.7875 0.822 11.6092 0.966 11.4652C1.1095 11.3217 1.2875 11.25 1.5 11.25H4.5C4.7125 11.25 4.89075 11.3217 5.03475 11.4652C5.17825 11.6092 5.25 11.7875 5.25 12C5.25 12.2125 5.17825 12.3905 5.03475 12.534C4.89075 12.678 4.7125 12.75 4.5 12.75H3.39375C3.99375 13.65 4.7845 14.375 5.766 14.925C6.747 15.475 7.825 15.75 9 15.75C10.75 15.75 12.2595 15.175 13.5285 14.025C14.797 12.875 15.525 11.45 15.7125 9.75C15.7375 9.5375 15.822 9.35925 15.966 9.21525C16.1095 9.07175 16.2875 9 16.5 9C16.7125 9 16.8905 9.075 17.034 9.225C17.178 9.375 17.2375 9.55 17.2125 9.75C17.125 10.8 16.847 11.7812 16.3785 12.6937C15.9095 13.6062 15.3095 14.4 14.5785 15.075C13.847 15.75 13.003 16.2813 12.0465 16.6688C11.0905 17.0563 10.075 17.25 9 17.25ZM1.5 9C1.2875 9 1.1095 8.925 0.966 8.775C0.822 8.625 0.7625 8.45 0.7875 8.25C0.8875 7.2 1.16875 6.21875 1.63125 5.30625C2.09375 4.39375 2.6905 3.6 3.4215 2.925C4.153 2.25 4.997 1.71875 5.9535 1.33125C6.9095 0.94375 7.925 0.75 9 0.75C10.4 0.75 11.6875 1.06875 12.8625 1.70625C14.0375 2.34375 15 3.19375 15.75 4.25625V3C15.75 2.7875 15.822 2.60925 15.966 2.46525C16.1095 2.32175 16.2875 2.25 16.5 2.25C16.7125 2.25 16.8905 2.32175 17.034 2.46525C17.178 2.60925 17.25 2.7875 17.25 3V6C17.25 6.2125 17.178 6.3905 17.034 6.534C16.8905 6.678 16.7125 6.75 16.5 6.75H13.5C13.2875 6.75 13.1095 6.678 12.966 6.534C12.822 6.3905 12.75 6.2125 12.75 6C12.75 5.7875 12.822 5.60925 12.966 5.46525C13.1095 5.32175 13.2875 5.25 13.5 5.25H14.6063C14.0063 4.35 13.2155 3.625 12.234 3.075C11.253 2.525 10.175 2.25 9 2.25C7.25 2.25 5.74075 2.825 4.47225 3.975C3.20325 5.125 2.475 6.55 2.2875 8.25C2.2625 8.4625 2.17825 8.6405 2.03475 8.784C1.89075 8.928 1.7125 9 1.5 9ZM8.98125 14.25C8.80625 14.25 8.65325 14.1845 8.52225 14.0535C8.39075 13.922 8.325 13.7688 8.325 13.5938V13.275C7.85 13.175 7.44375 12.9905 7.10625 12.7215C6.76875 12.453 6.5 12.1062 6.3 11.6812C6.225 11.5187 6.22825 11.35 6.30975 11.175C6.39075 11 6.51875 10.8813 6.69375 10.8188C6.85625 10.7563 7.01875 10.7563 7.18125 10.8188C7.34375 10.8813 7.475 11 7.575 11.175C7.75 11.4875 7.96875 11.7217 8.23125 11.8777C8.49375 12.0342 8.7875 12.1125 9.1125 12.1125C9.525 12.1125 9.878 12.0155 10.1715 11.8215C10.4655 11.628 10.6125 11.325 10.6125 10.9125C10.6125 10.55 10.4595 10.2563 10.1535 10.0312C9.847 9.80625 9.3 9.55 8.5125 9.2625C7.775 9 7.2345 8.6875 6.891 8.325C6.547 7.9625 6.375 7.4875 6.375 6.9C6.375 6.3875 6.55 5.925 6.9 5.5125C7.25 5.1 7.7375 4.825 8.3625 4.6875V4.40625C8.3625 4.23125 8.42825 4.078 8.55975 3.9465C8.69075 3.8155 8.84375 3.75 9.01875 3.75C9.19375 3.75 9.34675 3.8155 9.47775 3.9465C9.60925 4.078 9.675 4.23125 9.675 4.40625V4.6875C10.0125 4.7125 10.3283 4.825 10.6223 5.025C10.9158 5.225 11.1625 5.46875 11.3625 5.75625C11.4625 5.90625 11.4783 6.07175 11.4098 6.25275C11.3408 6.43425 11.2125 6.5625 11.025 6.6375C10.8875 6.7 10.7407 6.70325 10.5847 6.64725C10.4282 6.59075 10.2875 6.4875 10.1625 6.3375C10.0375 6.1875 9.88125 6.06875 9.69375 5.98125C9.50625 5.89375 9.2875 5.85 9.0375 5.85C8.6 5.85 8.26575 5.94375 8.03475 6.13125C7.80325 6.31875 7.6875 6.575 7.6875 6.9C7.6875 7.225 7.83125 7.48125 8.11875 7.66875C8.40625 7.85625 8.925 8.075 9.675 8.325C10.575 8.65 11.175 9.03125 11.475 9.46875C11.775 9.90625 11.925 10.3875 11.925 10.9125C11.925 11.65 11.7 12.2062 11.25 12.5812C10.8 12.9562 10.2625 13.2 9.6375 13.3125V13.5938C9.6375 13.7688 9.572 13.922 9.441 14.0535C9.3095 14.1845 9.15625 14.25 8.98125 14.25Z" fill="#C4C4C4"/>
</g>
</svg>