<svg width="37" height="36" viewBox="0 0 37 36" fill="none" xmlns="http://www.w3.org/2000/svg">
<mask id="mask0_2056_7085" style="mask-type:alpha" maskUnits="userSpaceOnUse" x="0" y="0" width="37" height="36">
<rect x="0.5" width="36" height="36" fill="#D9D9D9"/>
</mask>
<g mask="url(#mask0_2056_7085)">
<path d="M23.375 7.49959C22.85 7.49959 22.4063 7.31834 22.0438 6.95584C21.6813 6.59334 21.5 6.14959 21.5 5.62459C21.5 5.09959 21.6813 4.65584 22.0438 4.29334C22.4063 3.93084 22.85 3.74959 23.375 3.74959C23.9 3.74959 24.3437 3.93084 24.7062 4.29334C25.0687 4.65584 25.25 5.09959 25.25 5.62459C25.25 6.14959 25.0687 6.59334 24.7062 6.95584C24.3437 7.31834 23.9 7.49959 23.375 7.49959ZM23.375 32.2496C22.85 32.2496 22.4063 32.0683 22.0438 31.7058C21.6813 31.3433 21.5 30.8996 21.5 30.3746C21.5 29.8496 21.6813 29.4058 22.0438 29.0433C22.4063 28.6808 22.85 28.4996 23.375 28.4996C23.9 28.4996 24.3437 28.6808 24.7062 29.0433C25.0687 29.4058 25.25 29.8496 25.25 30.3746C25.25 30.8996 25.0687 31.3433 24.7062 31.7058C24.3437 32.0683 23.9 32.2496 23.375 32.2496ZM29.375 12.7496C28.85 12.7496 28.4063 12.5683 28.0438 12.2058C27.6813 11.8433 27.5 11.3996 27.5 10.8746C27.5 10.3496 27.6813 9.90584 28.0438 9.54334C28.4063 9.18084 28.85 8.99959 29.375 8.99959C29.9 8.99959 30.3438 9.18084 30.7063 9.54334C31.0688 9.90584 31.25 10.3496 31.25 10.8746C31.25 11.3996 31.0688 11.8433 30.7063 12.2058C30.3438 12.5683 29.9 12.7496 29.375 12.7496ZM29.375 26.9996C28.85 26.9996 28.4063 26.8183 28.0438 26.4558C27.6813 26.0933 27.5 25.6496 27.5 25.1246C27.5 24.5996 27.6813 24.1558 28.0438 23.7933C28.4063 23.4308 28.85 23.2496 29.375 23.2496C29.9 23.2496 30.3438 23.4308 30.7063 23.7933C31.0688 24.1558 31.25 24.5996 31.25 25.1246C31.25 25.6496 31.0688 26.0933 30.7063 26.4558C30.3438 26.8183 29.9 26.9996 29.375 26.9996ZM31.625 19.8746C31.1 19.8746 30.6563 19.6933 30.2938 19.3308C29.9313 18.9683 29.75 18.5246 29.75 17.9996C29.75 17.4746 29.9313 17.0308 30.2938 16.6683C30.6563 16.3058 31.1 16.1246 31.625 16.1246C32.15 16.1246 32.5938 16.3058 32.9563 16.6683C33.3188 17.0308 33.5 17.4746 33.5 17.9996C33.5 18.5246 33.3188 18.9683 32.9563 19.3308C32.5938 19.6933 32.15 19.8746 31.625 19.8746ZM3.5 17.9996C3.5 14.0746 4.80625 10.6996 7.41875 7.87459C10.0312 5.04959 13.2375 3.44959 17.0375 3.07459C17.4375 3.02459 17.7813 3.14334 18.0688 3.43084C18.3563 3.71834 18.5 4.07459 18.5 4.49959C18.5 4.89959 18.3688 5.24959 18.1063 5.54959C17.8438 5.84959 17.5125 6.02459 17.1125 6.07459C14.0875 6.42459 11.5625 7.72459 9.5375 9.97459C7.5125 12.2246 6.5 14.8996 6.5 17.9996C6.5 21.1246 7.5125 23.8058 9.5375 26.0433C11.5625 28.2808 14.0875 29.5746 17.1125 29.9246C17.5125 29.9746 17.8438 30.1496 18.1063 30.4496C18.3688 30.7496 18.5 31.0996 18.5 31.4996C18.5 31.9246 18.3563 32.2808 18.0688 32.5683C17.7813 32.8558 17.4375 32.9746 17.0375 32.9246C13.2125 32.5496 10 30.9496 7.4 28.1246C4.8 25.2996 3.5 21.9246 3.5 17.9996ZM18.5 20.9996C17.675 20.9996 16.9688 20.7058 16.3813 20.1183C15.7938 19.5308 15.5 18.8246 15.5 17.9996C15.5 17.8746 15.5062 17.7433 15.5187 17.6058C15.5312 17.4683 15.5625 17.3371 15.6125 17.2121L13.55 15.1496C13.275 14.8746 13.1375 14.5246 13.1375 14.0996C13.1375 13.6746 13.275 13.3246 13.55 13.0496C13.825 12.7746 14.175 12.6371 14.6 12.6371C15.025 12.6371 15.375 12.7746 15.65 13.0496L17.7125 15.1121C17.8125 15.0871 18.075 15.0496 18.5 14.9996C19.325 14.9996 20.0313 15.2933 20.6188 15.8808C21.2063 16.4683 21.5 17.1746 21.5 17.9996C21.5 18.8246 21.2063 19.5308 20.6188 20.1183C20.0313 20.7058 19.325 20.9996 18.5 20.9996Z"/>
</g>
</svg>