<svg width="24" height="24" viewBox="0 0 24 24" fill="none" xmlns="http://www.w3.org/2000/svg">
<mask id="mask0_771_1615" style="mask-type:alpha" maskUnits="userSpaceOnUse" x="0" y="0" width="24" height="24">
<rect width="24" height="24" fill="#D9D9D9"/>
</mask>
<g mask="url(#mask0_771_1615)">
<path d="M13.425 21.4501C13.225 21.6501 13.004 21.7958 12.762 21.8871C12.5207 21.9791 12.2667 22.0251 12 22.0251C11.7333 22.0251 11.4793 21.9791 11.238 21.8871C10.996 21.7958 10.775 21.6501 10.575 21.4501L2.55001 13.4251C2.35001 13.2251 2.20401 13.0041 2.11201 12.7621C2.02067 12.5208 1.97501 12.2668 1.97501 12.0001C1.97501 11.7334 2.02067 11.4794 2.11201 11.2381C2.20401 10.9961 2.35001 10.7751 2.55001 10.5751L10.575 2.5501C10.775 2.3501 10.996 2.2041 11.238 2.1121C11.4793 2.02076 11.7333 1.9751 12 1.9751C12.2667 1.9751 12.5207 2.02076 12.762 2.1121C13.004 2.2041 13.225 2.3501 13.425 2.5501L21.45 10.5751C21.65 10.7751 21.796 10.9961 21.888 11.2381C21.9793 11.4794 22.025 11.7334 22.025 12.0001C22.025 12.2668 21.9793 12.5208 21.888 12.7621C21.796 13.0041 21.65 13.2251 21.45 13.4251L13.425 21.4501ZM12 20.0251L20.025 12.0001L12 3.9751L3.97501 12.0001L12 20.0251ZM12 13.0001C12.2833 13.0001 12.521 12.9041 12.713 12.7121C12.9043 12.5208 13 12.2834 13 12.0001V8.0001C13 7.71676 12.9043 7.4791 12.713 7.2871C12.521 7.09576 12.2833 7.0001 12 7.0001C11.7167 7.0001 11.4793 7.09576 11.288 7.2871C11.096 7.4791 11 7.71676 11 8.0001V12.0001C11 12.2834 11.096 12.5208 11.288 12.7121C11.4793 12.9041 11.7167 13.0001 12 13.0001ZM12 16.0001C12.2833 16.0001 12.521 15.9041 12.713 15.7121C12.9043 15.5208 13 15.2834 13 15.0001C13 14.7168 12.9043 14.4791 12.713 14.2871C12.521 14.0958 12.2833 14.0001 12 14.0001C11.7167 14.0001 11.4793 14.0958 11.288 14.2871C11.096 14.4791 11 14.7168 11 15.0001C11 15.2834 11.096 15.5208 11.288 15.7121C11.4793 15.9041 11.7167 16.0001 12 16.0001Z" fill="white"/>
</g>
</svg>