<svg width="28" height="28" viewBox="0 0 28 28" fill="none" xmlns="http://www.w3.org/2000/svg">
<mask id="mask0_1445_3304" style="mask-type:alpha" maskUnits="userSpaceOnUse" x="0" y="0" width="28" height="28">
<rect width="28" height="28" fill="#D9D9D9"/>
</mask>
<g mask="url(#mask0_1445_3304)">
<path d="M4.66665 23.3332C4.02498 23.3332 3.47567 23.1047 3.01873 22.6478C2.56179 22.1908 2.33331 21.6415 2.33331 20.9998V6.99984C2.33331 6.35817 2.56179 5.80887 3.01873 5.35192C3.47567 4.89498 4.02498 4.6665 4.66665 4.6665H23.3333C23.975 4.6665 24.5243 4.89498 24.9812 5.35192C25.4382 5.80887 25.6666 6.35817 25.6666 6.99984V11.6665H23.3333V9.33317L14.6125 14.7873C14.5153 14.8457 14.4132 14.8894 14.3062 14.9186C14.1993 14.9478 14.0972 14.9623 14 14.9623C13.9028 14.9623 13.8007 14.9478 13.6937 14.9186C13.5868 14.8894 13.4847 14.8457 13.3875 14.7873L4.66665 9.33317V20.9998H18.6666V23.3332H4.66665ZM14 12.8332L23.3333 6.99984H4.66665L14 12.8332ZM4.66665 9.33317V9.62484V7.904V7.93317V7.91859V9.62484V9.33317ZM22.1666 23.3332C21.8361 23.3332 21.559 23.2214 21.3354 22.9978C21.1118 22.7741 21 22.4971 21 22.1665V18.6665C21 18.3359 21.1118 18.0589 21.3354 17.8353C21.559 17.6116 21.8361 17.4998 22.1666 17.4998V16.3332C22.1666 15.6915 22.3951 15.1422 22.8521 14.6853C23.309 14.2283 23.8583 13.9998 24.5 13.9998C25.1416 13.9998 25.691 14.2283 26.1479 14.6853C26.6048 15.1422 26.8333 15.6915 26.8333 16.3332V17.4998C27.1639 17.4998 27.441 17.6116 27.6646 17.8353C27.8882 18.0589 28 18.3359 28 18.6665V22.1665C28 22.4971 27.8882 22.7741 27.6646 22.9978C27.441 23.2214 27.1639 23.3332 26.8333 23.3332H22.1666ZM23.3333 17.4998H25.6666V16.3332C25.6666 16.0026 25.5548 15.7255 25.3312 15.5019C25.1076 15.2783 24.8305 15.1665 24.5 15.1665C24.1694 15.1665 23.8923 15.2783 23.6687 15.5019C23.4451 15.7255 23.3333 16.0026 23.3333 16.3332V17.4998Z" fill="white"/>
</g>
</svg>