<svg width="20" height="20" viewBox="0 0 20 20" fill="none" xmlns="http://www.w3.org/2000/svg">
<g clip-path="url(#clip0_1207_3968)">
<mask id="mask0_1207_3968" style="mask-type:alpha" maskUnits="userSpaceOnUse" x="0" y="0" width="20" height="20">
<rect x="20" width="20" height="20" transform="rotate(90 20 0)" fill="#D9D9D9"/>
</mask>
<g mask="url(#mask0_1207_3968)">
<path d="M8.75016 5.83335C8.75016 6.18058 8.87169 6.47571 9.11475 6.71877C9.3578 6.96183 9.65294 7.08335 10.0002 7.08335C10.3474 7.08335 10.6425 6.96183 10.8856 6.71877C11.1286 6.47571 11.2502 6.18058 11.2502 5.83335C11.2502 5.48613 11.1286 5.19099 10.8856 4.94794C10.6425 4.70488 10.3474 4.58335 10.0002 4.58335C9.65294 4.58335 9.3578 4.70488 9.11475 4.94794C8.87169 5.19099 8.75016 5.48613 8.75016 5.83335ZM8.75016 10C8.75016 10.3472 8.87169 10.6424 9.11475 10.8854C9.3578 11.1285 9.65294 11.25 10.0002 11.25C10.3474 11.25 10.6425 11.1285 10.8856 10.8854C11.1286 10.6424 11.2502 10.3472 11.2502 10C11.2502 9.6528 11.1286 9.35766 10.8856 9.1146C10.6425 8.87155 10.3474 8.75002 10.0002 8.75002C9.65294 8.75002 9.3578 8.87155 9.11475 9.1146C8.87169 9.35766 8.75016 9.6528 8.75016 10ZM8.75016 14.1667C8.75016 14.5139 8.87169 14.809 9.11475 15.0521C9.3578 15.2952 9.65294 15.4167 10.0002 15.4167C10.3474 15.4167 10.6425 15.2952 10.8856 15.0521C11.1286 14.809 11.2502 14.5139 11.2502 14.1667C11.2502 13.8195 11.1286 13.5243 10.8856 13.2813C10.6425 13.0382 10.3474 12.9167 10.0002 12.9167C9.65294 12.9167 9.3578 13.0382 9.11475 13.2813C8.87169 13.5243 8.75016 13.8195 8.75016 14.1667ZM1.66683 10C1.66683 8.84724 1.88558 7.76391 2.32308 6.75002C2.76058 5.73613 3.35433 4.85419 4.10433 4.10419C4.85433 3.35419 5.73627 2.76044 6.75016 2.32294C7.76405 1.88544 8.84738 1.66669 10.0002 1.66669C11.1529 1.66669 12.2363 1.88544 13.2502 2.32294C14.2641 2.76044 15.146 3.35419 15.896 4.10419C16.646 4.85419 17.2397 5.73613 17.6772 6.75002C18.1147 7.76391 18.3335 8.84724 18.3335 10C18.3335 11.1528 18.1147 12.2361 17.6772 13.25C17.2397 14.2639 16.646 15.1459 15.896 15.8959C15.146 16.6459 14.2641 17.2396 13.2502 17.6771C12.2363 18.1146 11.1529 18.3334 10.0002 18.3334C8.84738 18.3334 7.76405 18.1146 6.75016 17.6771C5.73627 17.2396 4.85433 16.6459 4.10433 15.8959C3.35433 15.1459 2.76058 14.2639 2.32308 13.25C1.88558 12.2361 1.66683 11.1528 1.66683 10ZM3.33349 10C3.33349 11.8611 3.97933 13.4375 5.27099 14.7292C6.56266 16.0209 8.13905 16.6667 10.0002 16.6667C11.8613 16.6667 13.4377 16.0209 14.7293 14.7292C16.021 13.4375 16.6668 11.8611 16.6668 10C16.6668 8.13891 16.021 6.56252 14.7293 5.27085C13.4377 3.97919 11.8613 3.33335 10.0002 3.33335C8.13905 3.33335 6.56266 3.97919 5.27099 5.27085C3.97933 6.56252 3.33349 8.13891 3.33349 10Z" fill="white"/>
</g>
</g>
<defs>
<clipPath id="clip0_1207_3968">
<rect width="20" height="20" fill="white"/>
</clipPath>
</defs>
</svg>