<svg width="18" height="18" viewBox="0 0 18 18" fill="none" xmlns="http://www.w3.org/2000/svg">
<path d="M14.0378 13.7689C13.6907 13.7701 13.3467 13.7026 13.0259 13.5702C12.705 13.4377 12.4136 13.243 12.1684 12.9973L9.46807 10.2953C9.37256 10.2039 9.2455 10.153 9.11335 10.153C8.9812 10.153 8.85414 10.2039 8.75863 10.2953L6.0492 13.0047C5.80417 13.2508 5.51281 13.4459 5.19194 13.5787C4.87107 13.7115 4.52707 13.7795 4.17979 13.7786H3.65114L7.07286 17.2003C7.58605 17.7124 8.28143 18 9.00642 18C9.73141 18 10.4268 17.7124 10.94 17.2003L14.3685 13.7712L14.0378 13.7689Z" fill="#C4C4C4"/>
<path d="M4.18036 4.21999C4.52764 4.21906 4.87166 4.28698 5.19253 4.41981C5.5134 4.55264 5.80476 4.74775 6.04977 4.99387L8.7592 7.70387C8.85338 7.79776 8.98094 7.85048 9.11392 7.85048C9.2469 7.85048 9.37446 7.79776 9.46864 7.70387L12.1684 5.00413C12.4132 4.75771 12.7045 4.56236 13.0254 4.42941C13.3463 4.29647 13.6904 4.22858 14.0378 4.22968H14.3628L10.9343 0.801117C10.6804 0.547138 10.379 0.345665 10.0472 0.208207C9.71543 0.0707495 9.35983 0 9.00072 0C8.6416 0 8.28601 0.0707495 7.95424 0.208207C7.62248 0.345665 7.32104 0.547138 7.06716 0.801117L3.65114 4.21999H4.18036Z" fill="#C4C4C4"/>
<path d="M17.1989 7.06629L15.127 4.99444C15.0803 5.01354 15.0304 5.0236 14.9799 5.02409H14.0378C13.5475 5.02532 13.0776 5.22002 12.7301 5.56587L10.0304 8.2639C9.78724 8.50659 9.45774 8.6429 9.1142 8.6429C8.77067 8.6429 8.44117 8.50659 8.19804 8.2639L5.48803 5.5556C5.14065 5.20955 4.6707 5.01464 4.18036 5.01326H3.02382C2.97616 5.01219 2.92906 5.00273 2.88467 4.98531L0.799702 7.06629C0.287603 7.57948 0 8.27486 0 8.99985C0 9.72484 0.287603 10.4202 0.799702 10.9334L2.88011 13.0138C2.9244 12.9961 2.97156 12.9866 3.01926 12.9859H4.18036C4.67068 12.9844 5.14062 12.7895 5.48803 12.4435L8.19747 9.7341C8.68734 9.24479 9.54106 9.24479 10.0304 9.7341L12.7301 12.4333C13.0776 12.7791 13.5475 12.9738 14.0378 12.975H14.9799C15.0304 12.9754 15.0803 12.9855 15.127 13.0047L17.1989 10.9328C17.4529 10.679 17.6543 10.3775 17.7918 10.0458C17.9293 9.71399 18 9.3584 18 8.99928C18 8.64017 17.9293 8.28457 17.7918 7.95281C17.6543 7.62104 17.4529 7.31961 17.1989 7.06572" fill="#C4C4C4"/>
</svg>