<svg width="20" height="20" viewBox="0 0 20 20" fill="none" xmlns="http://www.w3.org/2000/svg">
<mask id="mask0_640_2828" style="mask-type:alpha" maskUnits="userSpaceOnUse" x="0" y="0" width="20" height="20">
<rect width="20" height="20" fill="#D9D9D9"/>
</mask>
<g mask="url(#mask0_640_2828)">
<path d="M9.12501 10.5832L7.97918 9.4165C7.81251 9.24984 7.61473 9.1665 7.38584 9.1665C7.1564 9.1665 6.95834 9.24984 6.79168 9.4165C6.62501 9.58317 6.53834 9.78095 6.53168 10.0098C6.52445 10.2393 6.60418 10.4373 6.77084 10.604L8.54168 12.3748C8.70834 12.5415 8.90279 12.6248 9.12501 12.6248C9.34723 12.6248 9.54168 12.5415 9.70834 12.3748L13.25 8.83317C13.4167 8.6665 13.5 8.46845 13.5 8.239C13.5 8.01011 13.4167 7.81234 13.25 7.64567C13.0833 7.479 12.8856 7.39567 12.6567 7.39567C12.4272 7.39567 12.2292 7.479 12.0625 7.64567L9.12501 10.5832ZM10 18.2707H9.79168C9.72223 18.2707 9.65973 18.2568 9.60418 18.229C7.78473 17.6596 6.28473 16.5309 5.10418 14.8432C3.92362 13.1559 3.33334 11.2915 3.33334 9.24984V5.31234C3.33334 4.96511 3.43418 4.65261 3.63584 4.37484C3.83695 4.09706 4.09723 3.89567 4.41668 3.77067L9.41668 1.89567C9.61112 1.82623 9.80557 1.7915 10 1.7915C10.1945 1.7915 10.3889 1.82623 10.5833 1.89567L15.5833 3.77067C15.9028 3.89567 16.1633 4.09706 16.365 4.37484C16.5661 4.65261 16.6667 4.96511 16.6667 5.31234V9.24984C16.6667 11.2915 16.0764 13.1559 14.8958 14.8432C13.7153 16.5309 12.2153 17.6596 10.3958 18.229C10.3264 18.2568 10.1945 18.2707 10 18.2707ZM10 16.5832C11.4445 16.1248 12.6389 15.2082 13.5833 13.8332C14.5278 12.4582 15 10.9304 15 9.24984V5.31234L10 3.43734L5.00001 5.31234V9.24984C5.00001 10.9304 5.47223 12.4582 6.41668 13.8332C7.36112 15.2082 8.55557 16.1248 10 16.5832Z" fill="#C4C4C4"/>
</g>
</svg>