<svg width="18" height="18" viewBox="0 0 18 18" fill="none" xmlns="http://www.w3.org/2000/svg">
<g clip-path="url(#clip0_643_2957)">
<path d="M1.49924 17.161H1.50001C1.56343 17.161 1.6177 17.1517 1.6772 17.1347C1.67729 17.1347 1.67738 17.1346 1.67748 17.1346L5.11791 16.1781C6.30857 16.8186 7.63949 17.1535 9.00001 17.1535C13.5027 17.1535 17.1625 13.4937 17.1625 8.99097C17.1625 4.48824 13.5027 0.828467 9.00001 0.828467C4.49728 0.828467 0.837507 4.48824 0.837507 8.99097C0.837507 10.329 1.16498 11.6523 1.79069 12.8283L0.855904 16.3226L0.8559 16.3226L0.855683 16.3235C0.830225 16.422 0.827571 16.5251 0.847923 16.6249C0.868275 16.7247 0.911097 16.8185 0.973136 16.8992C1.03518 16.98 1.1148 17.0455 1.20596 17.0908C1.29712 17.1362 1.39742 17.1602 1.49924 17.161ZM5.54074 14.8973L5.54085 14.8971L5.53473 14.894C5.4356 14.8445 5.3226 14.8085 5.20501 14.8085C5.15124 14.8085 5.08905 14.8171 5.03349 14.8352L2.44427 15.5529L3.14911 12.9168L3.14921 12.9164C3.19357 12.7479 3.16703 12.5631 3.07888 12.4131C2.48027 11.3783 2.16251 10.2032 2.16251 8.99847C2.16251 5.2287 5.23024 2.16097 9.00001 2.16097C12.7698 2.16097 15.8375 5.2287 15.8375 8.99847C15.8375 12.7682 12.7698 15.836 9.00001 15.836C7.78021 15.836 6.58275 15.5107 5.54074 14.8973Z" fill="#C4C4C4" stroke="#C4C4C4" stroke-width="0.2"/>
<path d="M11.055 13.32C10.59 13.32 10.11 13.215 9.60749 12.9975C9.13499 12.795 8.66249 12.525 8.20499 12.1875C7.75499 11.8575 7.31249 11.4825 6.90749 11.0775C6.50249 10.665 6.12749 10.23 5.79749 9.77998C5.45999 9.30748 5.18999 8.84248 4.99499 8.38498C4.78499 7.88998 4.67999 7.40248 4.67999 6.93748C4.67999 6.60748 4.73999 6.29248 4.85249 5.99998C4.97249 5.69248 5.16749 5.41498 5.42249 5.17498C5.90249 4.70248 6.59249 4.52998 7.13999 4.79248C7.32749 4.87498 7.48499 5.00998 7.60499 5.18998L8.47499 6.41248C8.56499 6.53248 8.63249 6.65998 8.68499 6.78748C8.74499 6.93748 8.78249 7.08748 8.78249 7.22998C8.78249 7.42498 8.72999 7.61998 8.62499 7.79248C8.55749 7.90498 8.45999 8.03998 8.33249 8.16748L8.23499 8.27248C8.27999 8.33248 8.33249 8.40748 8.41499 8.49748C8.57249 8.67748 8.74499 8.87248 8.93249 9.05998C9.11999 9.23998 9.30749 9.41998 9.49499 9.57748C9.58499 9.65248 9.65999 9.71248 9.71999 9.74998L9.82499 9.64498C9.95999 9.50998 10.095 9.40498 10.23 9.33748C10.4775 9.17998 10.86 9.14248 11.1975 9.28498C11.3175 9.32998 11.4375 9.39748 11.565 9.48748L12.8175 10.3725C12.99 10.4925 13.125 10.6575 13.215 10.845C13.29 11.0325 13.32 11.1975 13.32 11.37C13.32 11.595 13.2675 11.8125 13.17 12.0225C13.0725 12.2175 12.96 12.39 12.825 12.5475C12.585 12.81 12.3075 13.005 12.0075 13.1325C11.7075 13.26 11.385 13.32 11.055 13.32ZM6.59249 5.80498C6.54749 5.80498 6.39749 5.80498 6.20999 5.99248C6.06749 6.12748 5.96999 6.26998 5.90249 6.42748C5.83499 6.58498 5.80499 6.76498 5.80499 6.94498C5.80499 7.25998 5.87999 7.59748 6.02999 7.95748C6.18749 8.33248 6.41999 8.72998 6.70499 9.12748C6.99749 9.52498 7.32749 9.92248 7.69499 10.29C8.06249 10.65 8.45249 10.9875 8.85749 11.2875C9.24749 11.5725 9.64499 11.7975 10.0425 11.97C10.6125 12.2175 11.1375 12.2775 11.565 12.0975C11.715 12.0375 11.85 11.9325 11.985 11.7975C12.0525 11.7225 12.105 11.6475 12.15 11.55C12.1725 11.4975 12.1875 11.4375 12.1875 11.385C12.1875 11.37 12.1875 11.3475 12.165 11.3025L10.9125 10.4325C10.8666 10.398 10.8161 10.3702 10.7625 10.35C10.7325 10.365 10.6875 10.3875 10.605 10.47L10.32 10.755C10.1025 10.9725 9.75749 11.0325 9.47999 10.935L9.34499 10.875C9.17249 10.785 8.97749 10.65 8.75999 10.4625C8.54999 10.2825 8.34749 10.095 8.12999 9.88498C7.91999 9.66748 7.73249 9.46498 7.55249 9.25498C7.39597 9.07505 7.25544 8.88182 7.13249 8.67748L7.04999 8.48248C7.02898 8.4068 7.01887 8.32851 7.01999 8.24998C7.01999 8.03998 7.09499 7.85248 7.23749 7.70248L7.52249 7.40998C7.60499 7.32748 7.63499 7.28248 7.64999 7.25248C7.6256 7.19932 7.59542 7.14902 7.55999 7.10248L6.68249 5.86498L6.59249 5.80498Z" fill="#C4C4C4"/>
</g>
<defs>
<clipPath id="clip0_643_2957">
<rect width="18" height="18" fill="white"/>
</clipPath>
</defs>
</svg>